<?xml version="1.0" encoding="UTF-8"?>
<svg xmlns="http://www.w3.org/2000/svg" fill="none" viewBox="0 0 20 20" aria-hidden="true">
  <path stroke="currentColor" stroke-linecap="round" stroke-linejoin="round" stroke-width="1.5" d="M14.167 13.75v1.667a1.667 1.667 0 0 1-1.667 1.667H4.167A1.667 1.667 0 0 1 2.5 15.417v-7.5A1.667 1.667 0 0 1 4.167 6.25h1.666M7.5 2.917H10l1.667 1.667h4.166A1.666 1.666 0 0 1 17.5 6.25v5.834a1.667 1.667 0 0 1-1.667 1.666H7.5a1.667 1.667 0 0 1-1.667-1.666v-7.5A1.667 1.667 0 0 1 7.5 2.917"/>
</svg>
